<svg xmlns="http://www.w3.org/2000/svg" viewBox="0 0 356.03 341.79"><defs><style>.cls-1{fill:#fff;}</style></defs><g id="Layer_2" data-name="Layer 2"><g id="Layer_1-2" data-name="Layer 1"><path class="cls-1" d="M99.67,61.53c-.07-1.33-.13-2.66-.19-4h0c0-.14,0-.29,0-.44a2.17,2.17,0,0,0-.3-1.46.93.93,0,0,0-.73-.3h0l-.12,0a213.57,213.57,0,0,0-19.82,11c-4.18,2.52-8.51,5.13-12.82,7.48a9.59,9.59,0,0,1-4.48,1.68h0a9.64,9.64,0,0,1-4.52-1.66L22.75,54.52v.56c0,1.3-.09,3-.17,5-.12,2.93-.27,6.58-.31,10.3l0,1c-.37,6.53.08,11.8,1.35,16.07.76,3.25,1.88,5.57,3.3,6.84l.17.23.26.37-.36.08.67.46.19.13.12.07a21.2,21.2,0,0,0,9,6,54.87,54.87,0,0,0,22,4.54c1.11,0,2.22,0,3.34-.1a56.39,56.39,0,0,0,22.41-4.71c14.84-5.42,16-19.66,15.34-31.45C99.94,67.07,99.8,64.26,99.67,61.53Zm11.76,12.66a3.13,3.13,0,0,0,.56-.88,9,9,0,0,0,1.63-5.39c0-3-1.21-5.61-3-6.66l.17-21.74,11.5-6.38L64.19,1.24A8.74,8.74,0,0,0,61,0,5.18,5.18,0,0,0,59.55.1a11.92,11.92,0,0,0-3.4,1.41L6.29,28.88,1.23,31.65C.68,32-.14,32.4,0,33.33c.13.73.9,1.08,1.51,1.36l.38.19L58.19,65.63a5.14,5.14,0,0,0,1.81.7,5.26,5.26,0,0,0,3-.88l44.15-24,.13,19.8c-1.84,1-3.06,3.69-3.06,6.68s1.1,5.41,2.82,6.55a5.49,5.49,0,0,1-.45,1.87l-3.88,10.39.41,0c1.64.11,3.3.17,4.95.17a71.68,71.68,0,0,0,7.33-.38l.44,0-.21-.39A46,46,0,0,1,111.43,74.19Zm-11.26,83.43v144.6c0,21.82-17.51,39.57-39,39.57s-39-17.75-39-39.57V157.62c0-21.82,17.51-39.56,39-39.56h0C82.66,118.06,100.17,135.8,100.17,157.62ZM356,314.17,344.9,142.44c-.88-13.67-12.68-24.38-26.87-24.38H305a27,27,0,0,0-25.26,17l-33.15,87c-2.87,7.86-5.46,15.15-7.81,22-2.25-6.83-4.73-14.11-7.47-22l-31.65-86.65a26.91,26.91,0,0,0-25.39-17.35h-13c-14.08,0-25.87,10.62-26.85,24.19L122,314a25.6,25.6,0,0,0,7.17,19.55,27.48,27.48,0,0,0,19.69,8.27c14.18,0,26-10.72,26.86-24.39l4.69-72.71c.11-1.68.21-3.37.31-5.06L210,323a26.85,26.85,0,0,0,25.49,17.64h2.27a27,27,0,0,0,25.3-17.11l32.78-87c.29-.76.58-1.51.86-2.26.16,2.84.31,5.63.46,8.35l4.44,74.71c.82,13.74,12.62,24.51,26.88,24.51h.64a27.49,27.49,0,0,0,19.62-8.2A25.57,25.57,0,0,0,356,314.17Z"/></g></g></svg>